<?xml version="1.0" encoding="utf-8"?>
<!-- Generator: Adobe Illustrator 19.2.1, SVG Export Plug-In . SVG Version: 6.00 Build 0)  -->
<svg version="1.1" id="layer" xmlns="http://www.w3.org/2000/svg" xmlns:xlink="http://www.w3.org/1999/xlink" x="0px" y="0px"
	 viewBox="0 0 652 652" style="enable-background:new 0 0 652 652;" xml:space="preserve">
<style type="text/css">
	.st0{fill:#5468FF;}
	.st1{fill:#FFFFFF;}
</style>
<g>
	<path class="st0" d="M40.2,246.8h109.3c10.8,0,19.5,8.7,19.5,19.5v109.3c0,10.8-8.7,19.5-19.5,19.5H40.2
		c-10.8,0-19.5-8.7-19.5-19.5V266.3C20.7,255.6,29.4,246.8,40.2,246.8"/>
	<path class="st1" d="M110.3,279.9v-5.1c0-3.6-2.9-6.4-6.4-6.4h-15c-3.6,0-6.4,2.9-6.4,6.4v5.2c0,0.6,0.5,1,1.1,0.9
		c4.2-1.2,8.6-1.8,13.1-1.8c4.3,0,8.5,0.6,12.6,1.7C109.8,280.9,110.3,280.5,110.3,279.9 M69.2,286.6l-2.6-2.6
		c-2.5-2.5-6.6-2.5-9.1,0c0,0,0,0,0,0l-3.1,3.1c-2.5,2.5-2.5,6.6,0,9.1c0,0,0,0,0,0l2.5,2.5c0.4,0.4,1,0.3,1.4-0.1
		c1.5-2,3.1-4,4.9-5.8c1.8-1.8,3.7-3.5,5.8-4.9C69.5,287.6,69.5,287,69.2,286.6 M96.6,302.8v22c0,0.6,0.7,1.1,1.3,0.8l19.6-10.1
		c0.4-0.2,0.6-0.8,0.4-1.2c-4.1-7.1-11.6-12-20.3-12.3C97,301.9,96.6,302.3,96.6,302.8 M96.6,355.8c-16.3,0-29.6-13.2-29.6-29.5
		c0-16.3,13.3-29.5,29.6-29.5c16.3,0,29.6,13.2,29.6,29.5S112.9,355.8,96.6,355.8 M96.6,284.3c-23.2,0-42,18.8-42,41.9
		c0,23.2,18.8,41.9,42,41.9s42-18.8,42-41.9S119.8,284.3,96.6,284.3"/>
	<path class="st0" d="M316.4,364.5c-28.9,0.1-28.9-23.3-28.9-27l0-87.8l17.6-2.8v87.3c0,2.1,0,15.5,11.3,15.6L316.4,364.5
		L316.4,364.5z M245,350.1c5.4,0,9.4-0.3,12.2-0.9v-17.9c-1.4-0.4-2.8-0.7-4.2-0.9c-2-0.3-4.1-0.5-6.1-0.5c-1.9,0-3.9,0.1-5.9,0.5
		c-2,0.3-3.8,0.8-5.4,1.6c-1.6,0.8-2.9,1.8-3.8,3.2c-1,1.4-1.4,2.2-1.4,4.3c0,4.1,1.4,6.5,4.1,8.1
		C236.9,349.3,240.5,350.1,245,350.1L245,350.1z M243.4,286.2c5.8,0,10.7,0.7,14.7,2.2c4,1.4,7.2,3.5,9.5,6c2.4,2.6,4,6.1,5,9.8
		c1,3.7,1.5,7.7,1.5,12.2v45.3c-2.7,0.6-6.8,1.3-12.3,2.1c-5.5,0.8-11.7,1.2-18.5,1.2c-4.5,0-8.7-0.5-12.5-1.3
		c-3.8-0.9-7-2.2-9.7-4.2c-2.7-1.9-4.7-4.4-6.3-7.5c-1.5-3.1-2.3-7.4-2.3-11.9c0-4.3,0.9-7.1,2.5-10c1.7-3,4-5.4,6.9-7.3
		c2.9-1.9,6.3-3.2,10.1-4c3.8-0.8,7.8-1.2,12-1.2c1.9,0,4,0.1,6.1,0.4c2.1,0.2,4.4,0.6,6.9,1.2v-2.9c0-2-0.2-4-0.7-5.8
		c-0.5-1.8-1.3-3.4-2.5-4.8c-1.2-1.4-2.8-2.5-4.8-3.2c-2-0.8-4.5-1.4-7.5-1.4c-4.1,0-7.8,0.5-11.1,1.1c-3.4,0.6-6.2,1.3-8.3,2
		l-2.1-14.4c2.2-0.8,5.5-1.5,9.7-2.3C234,286.6,238.6,286.2,243.4,286.2C243.4,286.2,243.4,286.2,243.4,286.2z M591.4,349.6
		c5.4,0,9.4-0.3,12.2-0.9v-17.9c-1-0.3-2.4-0.6-4.2-0.9c-2-0.3-4.1-0.5-6.1-0.5c-1.9,0-3.9,0.1-5.9,0.5c-2,0.3-3.8,0.8-5.4,1.6
		c-1.6,0.8-2.9,1.8-3.8,3.2c-1,1.4-1.4,2.2-1.4,4.3c0,4.1,1.4,6.5,4.1,8.1C583.5,348.9,587,349.6,591.4,349.6L591.4,349.6z
		 M589.9,285.8c5.8,0,10.7,0.7,14.7,2.2c4,1.4,7.2,3.5,9.5,6c2.3,2.6,4,6.1,5,9.8c1,3.7,1.5,7.7,1.5,12.2v45.3
		c-2.7,0.6-6.8,1.3-12.3,2.1c-5.5,0.8-11.7,1.2-18.5,1.2c-4.5,0-8.7-0.5-12.5-1.3c-3.8-0.9-7-2.2-9.7-4.2c-2.7-1.9-4.7-4.4-6.3-7.5
		c-1.5-3.1-2.3-7.4-2.3-11.9c0-4.3,0.9-7.1,2.5-10c1.7-3,4-5.4,6.9-7.3c2.9-1.9,6.3-3.2,10.1-4s7.8-1.2,12-1.2c1.9,0,4,0.1,6.1,0.4
		c2.2,0.2,4.4,0.6,6.8,1.2v-2.9c0-2-0.2-4-0.7-5.8c-0.5-1.8-1.3-3.4-2.5-4.8c-1.2-1.4-2.8-2.5-4.8-3.2c-2-0.8-4.5-1.3-7.5-1.3
		c-4.1,0-7.8,0.5-11.1,1.1c-3.4,0.6-6.2,1.3-8.3,2l-2.1-14.4c2.2-0.8,5.5-1.5,9.7-2.3C580.5,286.2,585.1,285.8,589.9,285.8
		L589.9,285.8z M537,277.4c5.9,0,10.7-4.8,10.7-10.7c0-5.9-4.8-10.7-10.7-10.7c-5.9,0-10.7,4.8-10.7,10.7
		C526.3,272.7,531.1,277.4,537,277.4z M545.9,364.5h-17.7v-76l17.7-2.8L545.9,364.5L545.9,364.5L545.9,364.5z M514.9,364.5
		c-28.9,0.1-28.9-23.3-28.9-27l0-87.8l17.6-2.8v87.3c0,2.1,0,15.5,11.3,15.6V364.5z M457.6,325.6c0-7.6-1.7-14-4.9-18.4
		c-3.2-4.5-7.8-6.7-13.6-6.7c-5.8,0-10.4,2.2-13.6,6.7c-3.2,4.5-4.8,10.7-4.8,18.4c0,7.7,1.6,12.9,4.9,17.3
		c3.2,4.5,7.8,6.7,13.6,6.7c5.8,0,10.4-2.2,13.6-6.7C456,338.4,457.6,333.3,457.6,325.6z M475.6,325.6c0,5.9-0.9,10.4-2.6,15.3
		c-1.8,4.9-4.2,9.1-7.4,12.6c-3.2,3.5-7,6.2-11.5,8.1c-4.5,1.9-11.4,3-14.9,3c-3.5,0-10.4-1-14.8-3c-4.5-1.9-8.3-4.6-11.5-8.1
		c-3.2-3.5-5.7-7.7-7.5-12.6c-1.8-4.9-2.7-9.4-2.7-15.3s0.8-11.7,2.6-16.5c1.8-4.9,4.3-9,7.6-12.5c3.2-3.5,7.1-6.1,11.5-8
		c4.5-1.9,9.4-2.8,14.7-2.8c5.3,0,10.2,0.9,14.7,2.8c4.5,1.9,8.4,4.5,11.5,8c3.2,3.5,5.7,7.6,7.5,12.5
		C474.7,313.9,475.6,319.6,475.6,325.6C475.6,325.6,475.6,325.6,475.6,325.6z M343,325.6c0,7.4,1.6,15.6,4.9,19
		c3.2,3.4,7.4,5.1,12.6,5.1c2.8,0,5.5-0.4,7.9-1.2c2.5-0.8,4.5-1.7,6-2.7v-43.7c-1.3-0.3-6.5-1.4-11.6-1.5
		c-6.4-0.2-11.3,2.4-14.7,6.6C344.7,311.4,343,318.7,343,325.6L343,325.6z M392,360.3c0,12-3.1,20.8-9.2,26.4
		c-6.2,5.6-15.6,8.4-28.3,8.4c-4.6,0-14.3-0.9-22-2.6l2.8-14c6.4,1.3,15,1.7,19.4,1.7c7.1,0,12.1-1.4,15.1-4.3
		c3-2.9,4.5-7.2,4.5-12.8v-2.9c-1.8,0.9-4.1,1.7-6.9,2.6c-2.8,0.9-6.1,1.3-9.8,1.3c-4.9,0-9.3-0.8-13.3-2.3c-4-1.5-7.5-3.8-10.3-6.7
		c-2.8-3-5.1-6.7-6.7-11.2c-1.6-4.5-2.4-12.4-2.4-18.3c0-5.5,0.9-12.4,2.5-17c1.7-4.6,4.1-8.5,7.4-11.8c3.2-3.3,7.2-5.8,11.9-7.7
		c4.6-1.8,10.1-3,16-3c5.7,0,11,0.7,16.1,1.6c5.1,0.9,9.5,1.7,13.1,2.7L392,360.3L392,360.3L392,360.3z"/>
</g>
</svg>
